<?xml version="1.0" encoding="utf-8"?>
<svg version="1.1" xmlns="http://www.w3.org/2000/svg" width="353" height="165" xmlns:bx="https://boxy-svg.com">
  <defs>
    <bx:export>
      <bx:file format="webp" href="#object-0" path="Sans titre.webp"/>
      <bx:file format="webp" href="#object-1" path="Sans titre 2.webp"/>
      <bx:file format="webp" href="#object-2" path="Sans titre 3.webp"/>
      <bx:file format="webp" href="#object-3" path="Sans titre 4.webp"/>
      <bx:file format="webp" href="#object-4" path="Sans titre 5.webp"/>
      <bx:file format="webp" href="#object-5" path="Sans titre 6.webp"/>
      <bx:file format="webp" href="#object-6" path="Sans titre 7.webp"/>
      <bx:file format="webp" href="#object-7" path="Sans titre 8.webp"/>
      <bx:file format="svg" href="#object-0" path="Sans titre.svg"/>
      <bx:file format="svg" href="#object-1" path="Sans titre 2.svg"/>
      <bx:file format="svg" href="#object-2" path="Sans titre 3.svg"/>
      <bx:file format="svg" href="#object-3" path="Sans titre 4.svg"/>
      <bx:file format="svg" href="#object-4" path="Sans titre 5.svg"/>
      <bx:file format="svg" href="#object-5" path="Sans titre 6.svg"/>
      <bx:file format="svg" href="#object-6" path="Sans titre 7.svg"/>
      <bx:file format="svg" href="#object-7" path="Sans titre 8.svg"/>
    </bx:export>
  </defs>
  <path d="M0 0 C116.49 0 232.98 0 353 0 C353 54.45 353 108.9 353 165 C236.51 165 120.02 165 0 165 C0 110.55 0 56.1 0 0 Z " transform="translate(0,0)" style="fill: rgba(0, 0, 0, 0);" id="object-0"/>
  <path d="M 178 2.807 C 180.671 3.892 180.671 3.892 183.395 5.291 C 184.42 5.813 185.445 6.333 186.501 6.869 C 187.04 7.148 187.578 7.426 188.134 7.714 C 190.433 8.903 192.747 10.075 195.06 11.249 C 196.261 11.858 197.46 12.468 198.658 13.079 C 204.615 16.114 210.645 19.058 216.688 21.992 C 227.602 27.308 238.452 32.696 249.286 38.106 C 253.582 40.249 257.884 42.384 262.188 44.519 C 263.001 44.923 263.815 45.326 264.654 45.742 C 266.285 46.551 267.917 47.361 269.548 48.17 C 274.527 50.641 279.505 53.111 284.483 55.583 C 288.748 57.7 293.014 59.816 297.281 61.929 C 302.191 64.362 307.098 66.798 312 69.24 C 312.672 69.574 313.344 69.909 314.037 70.254 C 315.777 71.122 317.514 71.995 319.25 72.867 C 320.183 73.335 321.117 73.804 322.078 74.287 C 322.712 74.638 323.347 74.987 324 75.349 C 324 75.601 324 75.853 324 76.113 C 310.764 77.764 303.527 74.681 292.922 68.906 C 292.09 68.443 291.258 67.981 290.4 67.504 C 286.954 65.611 283.393 63.869 279.813 62.129 C 278.421 61.443 277.031 60.755 275.641 60.068 C 271.18 57.871 266.705 55.689 262.23 53.508 C 248.087 46.612 234.024 39.624 220 32.587 C 219.24 32.206 218.481 31.825 217.698 31.432 C 208.458 26.796 199.22 22.157 189.984 17.515 C 189.267 17.154 188.549 16.794 187.81 16.422 C 186.793 15.912 186.793 15.912 185.757 15.39 C 184.8 14.911 184.8 14.911 183.823 14.423 C 182.626 13.815 181.437 13.198 180.259 12.569 C 177.193 10.867 177.193 10.867 173.531 10.449 C 170.274 11.424 167.422 12.718 164.5 14.165 C 163.833 14.49 163.167 14.813 162.48 15.147 C 152.577 19.986 142.77 24.94 132.945 29.87 C 127.622 32.541 122.289 35.199 116.938 37.837 C 116.288 38.157 115.639 38.477 114.97 38.807 C 113.667 39.449 112.364 40.091 111.061 40.734 C 107.098 42.69 103.143 44.654 99.188 46.619 C 98.352 47.033 97.517 47.447 96.657 47.875 C 94.104 49.142 91.552 50.409 89 51.677 C 85.604 53.364 82.208 55.05 78.813 56.736 C 77.986 57.146 77.159 57.558 76.307 57.98 C 72.337 59.951 68.365 61.919 64.387 63.88 C 63.654 64.241 62.921 64.603 62.167 64.976 C 60.738 65.679 59.307 66.378 57.873 67.075 C 54.757 68.593 51.733 70.124 48.84 71.883 C 40.58 76.721 33.994 76.809 24 76.113 C 26.822 73.819 29.674 72.112 33.156 70.436 C 34.169 69.945 35.181 69.455 36.225 68.95 C 37.305 68.431 38.386 67.913 39.5 67.379 C 41.2 66.557 42.898 65.734 44.596 64.912 C 45.742 64.356 46.889 63.801 48.036 63.247 C 53.217 60.741 58.363 58.197 63.5 55.639 C 65.131 54.827 66.763 54.016 68.395 53.205 C 69.17 52.819 69.946 52.433 70.745 52.035 C 81.172 46.85 91.638 41.712 102.125 36.596 C 113.214 31.185 124.246 25.709 135.26 20.21 C 140.514 17.588 145.772 14.969 151.045 12.369 C 154.777 10.527 158.487 8.671 162.145 6.744 C 162.78 6.416 163.415 6.087 164.07 5.748 C 165.74 4.882 167.398 4.003 169.055 3.124 C 172.704 1.785 174.12 2.063 178 2.807 Z" style="fill: rgb(138, 249, 246);" id="object-1"/>
  <path d="M0 0 C5 0 5 0 6.80175781 1.32592773 C7.61918457 2.24547241 7.61918457 2.24547241 8.453125 3.18359375 C9.06800781 3.85970703 9.68289062 4.53582031 10.31640625 5.23242188 C10.95449219 5.96009766 11.59257813 6.68777344 12.25 7.4375 C13.58738365 8.9164126 14.92591961 10.39428401 16.265625 11.87109375 C16.90822266 12.5863623 17.55082031 13.30163086 18.21289062 14.03857422 C20.39992586 16.43893502 22.67820571 18.73024593 25 21 C28.88309691 24.82426211 32.45494279 28.86409993 36 33 C36.33 33.33 36.66 33.66 37 34 C37.33 22.78 37.66 11.56 38 0 C38.99 0 39.98 0 41 0 C41 12.87 41 25.74 41 39 C35.37754598 37.8755092 35.37754598 37.8755092 32.3984375 34.5703125 C31.7485083 33.86237549 31.0985791 33.15443848 30.42895508 32.42504883 C29.7511499 31.66603271 29.07334473 30.9070166 28.375 30.125 C26.95065883 28.56769207 25.52487302 27.01170422 24.09765625 25.45703125 C23.40172363 24.69471191 22.70579102 23.93239258 21.98876953 23.14697266 C18.55537499 19.44045761 14.94900451 15.92036818 11.33203125 12.39453125 C8.73992707 9.73295694 6.37843642 6.8541237 4 4 C3.67 15.55 3.34 27.1 3 39 C2.01 39 1.02 39 0 39 C0 26.13 0 13.26 0 0 Z " transform="translate(84,112)" style="fill: rgb(232, 149, 56);" id="object-2"/>
  <path d="M0 0 C3.59245144 2.57009372 6.5128201 5.75409791 8.9765625 9.4140625 C8.9765625 10.0740625 8.9765625 10.7340625 8.9765625 11.4140625 C7.2890625 11.2890625 7.2890625 11.2890625 4.9765625 10.4140625 C3.74292101 8.92070701 2.51117521 7.42553388 1.3046875 5.91015625 C-2.77274393 1.31704967 -8.40105841 0.73472111 -14.20703125 0.34765625 C-20.68355529 0.50036209 -26.47603987 2.72886494 -31.0234375 7.4140625 C-34.02995069 13.62822884 -34.02764112 20.34566255 -31.8984375 26.8515625 C-28.99958856 30.81332271 -25.64297003 32.87421832 -21.0234375 34.4140625 C-7.82642051 35.42714463 -7.82642051 35.42714463 3.9765625 30.4140625 C6.60777049 27.64436988 8.42800527 24.89831628 9.9765625 21.4140625 C10.9665625 21.4140625 11.9565625 21.4140625 12.9765625 21.4140625 C12.65209469 26.76778135 9.8085734 29.95974467 5.9765625 33.4140625 C-1.91742284 39.39072312 -10.58385065 39.31637595 -20.0234375 38.4140625 C-26.60954897 37.11469412 -31.67153642 33.5667299 -35.6640625 28.21484375 C-37.39528261 24.64793335 -37.45695568 21.93051129 -37.4609375 17.9765625 C-37.48027344 16.69910156 -37.49960938 15.42164063 -37.51953125 14.10546875 C-36.76546613 8.49451176 -34.15797586 5.4992731 -30.1484375 1.6640625 C-21.7442772 -4.38693292 -9.17029271 -4.77404752 0 0 Z " transform="translate(252.0234375,113.5859375)" style="fill: rgb(232, 149, 56);" id="object-3"/>
  <path d="M0 0 C0.99 0 1.98 0 3 0 C3 5.61 3 11.22 3 17 C4.27875 16.19175781 5.5575 15.38351563 6.875 14.55078125 C8.58332687 13.47134394 10.29166057 12.39191743 12 11.3125 C12.83917969 10.78205078 13.67835938 10.25160156 14.54296875 9.70507812 C16.21762376 8.64705965 17.89340014 7.59081396 19.5703125 6.53637695 C21.15478284 5.53446057 22.73326393 4.52299006 24.3046875 3.50073242 C25.00851563 3.04674072 25.71234375 2.59274902 26.4375 2.125 C27.05496094 1.72152344 27.67242187 1.31804687 28.30859375 0.90234375 C30.59832021 -0.31919623 32.45995843 -0.3968815 35 0 C32.80630428 2.37109517 30.59189806 3.97160941 27.8046875 5.59375 C27.00675781 6.06683594 26.20882812 6.53992188 25.38671875 7.02734375 C23.70642223 8.01252538 22.02410994 8.99427666 20.33984375 9.97265625 C19.54449219 10.44574219 18.74914062 10.91882813 17.9296875 11.40625 C17.19991699 11.83228516 16.47014648 12.25832031 15.71826172 12.69726562 C13.69366159 13.97748179 13.69366159 13.97748179 13 17 C13.84933105 17.36037354 13.84933105 17.36037354 14.71582031 17.72802734 C17.47040587 19.26195111 19.33249671 21.10726018 21.546875 23.3515625 C22.39121094 24.20234375 23.23554688 25.053125 24.10546875 25.9296875 C25.41451172 27.26386719 25.41451172 27.26386719 26.75 28.625 C27.63816406 29.5221875 28.52632812 30.419375 29.44140625 31.34375 C31.63216969 33.55807004 33.81812763 35.77692435 36 38 C34.30273438 38.78320312 34.30273438 38.78320312 32 39 C29.68164062 37.16992188 29.68164062 37.16992188 27.15625 34.46875 C26.47979431 33.76389465 26.47979431 33.76389465 25.78967285 33.0447998 C23.85849427 31.03174206 21.95804515 28.99053062 20.05419922 26.95166016 C18.66088201 25.46814524 17.25297333 23.9996368 15.84375 22.53125 C15.01037109 21.63986328 14.17699219 20.74847656 13.31835938 19.83007812 C11.22159305 17.75052413 11.22159305 17.75052413 8.94726562 18.15429688 C8.30466797 18.43337891 7.66207031 18.71246094 7 19 C5.68 19.33 4.36 19.66 3 20 C3 26.27 3 32.54 3 39 C2.01 39 1.02 39 0 39 C0 26.13 0 13.26 0 0 Z " transform="translate(133,112)" style="fill: rgb(232, 149, 56);" id="object-4"/>
  <path d="M 25.194 94.374 C 42.161 94.374 59.129 94.374 76.61 94.374 C 76.61 95.332 76.61 96.29 76.61 97.277 C 60.56 97.277 44.51 97.277 27.973 97.277 C 27.973 104.944 27.973 112.61 27.973 120.509 C 43.106 120.509 58.239 120.509 73.831 120.509 C 73.831 121.467 73.831 122.425 73.831 123.413 C 58.698 123.413 43.565 123.413 27.973 123.413 C 27.973 131.558 27.973 139.704 27.973 148.096 C 44.482 148.096 60.991 148.096 78 148.096 C 78 149.054 78 150.013 78 151 C 60.574 151 43.148 151 25.194 151 C 25.194 132.313 25.194 113.627 25.194 94.374 Z" style="fill: rgb(232, 149, 56);" id="object-5"/>
  <path d="M0 0 C0 0.66 0 1.32 0 2 C-1.65 2.33 -3.3 2.66 -5 3 C-5 2.34 -5 1.68 -5 1 C-8.3 1 -11.6 1 -15 1 C-15 0.67 -15 0.34 -15 0 C-12.87562788 -0.19448477 -10.75046809 -0.38038289 -8.625 -0.5625 C-7.44164062 -0.66691406 -6.25828125 -0.77132812 -5.0390625 -0.87890625 C-2 -1 -2 -1 0 0 Z " transform="translate(250,149)" style="fill: rgb(232, 149, 56);" id="object-6"/>
  <path d="M 272.778 93.192 C 289.745 93.192 306.713 93.192 324.194 93.192 C 324.194 94.15 324.194 95.108 324.194 96.095 C 308.144 96.095 292.094 96.095 275.557 96.095 C 275.557 103.762 275.557 111.428 275.557 119.327 C 290.69 119.327 305.823 119.327 321.415 119.327 C 321.415 120.285 321.415 121.243 321.415 122.231 C 306.282 122.231 291.149 122.231 275.557 122.231 C 275.557 130.376 275.557 138.522 275.557 146.914 C 292.066 146.914 308.575 146.914 325.584 146.914 C 325.584 147.872 325.584 148.831 325.584 149.818 C 308.158 149.818 290.732 149.818 272.778 149.818 C 272.778 131.131 272.778 112.445 272.778 93.192 Z" style="fill: rgb(232, 149, 56);" id="object-7"/>
  <rect x="1.211" y="160.652" width="343.51" height="3.651" style="fill: rgb(232, 149, 56); stroke: rgb(0, 0, 0);"/>
</svg>