<?xml version="1.0" encoding="UTF-8" standalone="no"?>
<svg
   version="1.1"
   width="353"
   height="165"
   id="svg1"
   sodipodi:docname="enkce4.svg"
   inkscape:version="1.4 (86a8ad7, 2024-10-11)"
   xmlns:inkscape="http://www.inkscape.org/namespaces/inkscape"
   xmlns:sodipodi="http://sodipodi.sourceforge.net/DTD/sodipodi-0.dtd"
   xmlns:xlink="http://www.w3.org/1999/xlink"
   xmlns="http://www.w3.org/2000/svg"
   xmlns:svg="http://www.w3.org/2000/svg"
   xmlns:bx="https://boxy-svg.com">
  <sodipodi:namedview
     id="namedview1"
     pagecolor="#ffffff"
     bordercolor="#000000"
     borderopacity="0.25"
     inkscape:showpageshadow="2"
     inkscape:pageopacity="0.0"
     inkscape:pagecheckerboard="0"
     inkscape:deskcolor="#d1d1d1"
     inkscape:zoom="2.3966006"
     inkscape:cx="176.5"
     inkscape:cy="82.408392"
     inkscape:window-width="1366"
     inkscape:window-height="697"
     inkscape:window-x="-8"
     inkscape:window-y="-8"
     inkscape:window-maximized="1"
     inkscape:current-layer="svg1">
    <inkscape:page
       x="0"
       y="0"
       width="353"
       height="165"
       id="page2"
       margin="0"
       bleed="0" />
  </sodipodi:namedview>
  <defs
     id="defs1">
    <linearGradient
       id="linearGradient9"
       inkscape:collect="always">
      <stop
         style="stop-color:#0b0900;stop-opacity:1;"
         offset="1"
         id="stop9" />
      <stop
         style="stop-color:#d6a400;stop-opacity:0;"
         offset="1"
         id="stop10" />
    </linearGradient>
    <linearGradient
       id="linearGradient7"
       inkscape:collect="always">
      <stop
         style="stop-color:#000000;stop-opacity:1;"
         offset="0"
         id="stop7" />
      <stop
         style="stop-color:#000000;stop-opacity:0;"
         offset="1"
         id="stop8" />
    </linearGradient>
    <linearGradient
       id="linearGradient5"
       inkscape:collect="always">
      <stop
         style="stop-color:#000000;stop-opacity:1;"
         offset="0"
         id="stop5" />
      <stop
         style="stop-color:#000000;stop-opacity:0;"
         offset="0"
         id="stop6" />
    </linearGradient>
    <linearGradient
       id="linearGradient3"
       inkscape:collect="always">
      <stop
         style="stop-color:#000000;stop-opacity:0.87261146;"
         offset="0"
         id="stop3" />
      <stop
         style="stop-color:#dfbf1b;stop-opacity:0;"
         offset="1"
         id="stop4" />
    </linearGradient>
    <linearGradient
       id="linearGradient1"
       inkscape:collect="always">
      <stop
         style="stop-color:#38e8d0;stop-opacity:1;"
         offset="0"
         id="stop1" />
      <stop
         style="stop-color:#e8388f;stop-opacity:0.06369427;"
         offset="1"
         id="stop2" />
    </linearGradient>
    <bx:export>
      <bx:file
         format="webp"
         href="#object-0"
         path="Sans titre.webp" />
      <bx:file
         format="webp"
         href="#object-1"
         path="Sans titre 2.webp" />
      <bx:file
         format="webp"
         href="#object-2"
         path="Sans titre 3.webp" />
      <bx:file
         format="webp"
         href="#object-3"
         path="Sans titre 4.webp" />
      <bx:file
         format="webp"
         href="#object-4"
         path="Sans titre 5.webp" />
      <bx:file
         format="webp"
         href="#object-5"
         path="Sans titre 6.webp" />
      <bx:file
         format="webp"
         href="#object-6"
         path="Sans titre 7.webp" />
      <bx:file
         format="webp"
         href="#object-7"
         path="Sans titre 8.webp" />
      <bx:file
         format="svg"
         href="#object-0"
         path="Sans titre.svg" />
      <bx:file
         format="svg"
         href="#object-1"
         path="Sans titre 2.svg" />
      <bx:file
         format="svg"
         href="#object-2"
         path="Sans titre 3.svg" />
      <bx:file
         format="svg"
         href="#object-3"
         path="Sans titre 4.svg" />
      <bx:file
         format="svg"
         href="#object-4"
         path="Sans titre 5.svg" />
      <bx:file
         format="svg"
         href="#object-5"
         path="Sans titre 6.svg" />
      <bx:file
         format="svg"
         href="#object-6"
         path="Sans titre 7.svg" />
      <bx:file
         format="svg"
         href="#object-7"
         path="Sans titre 8.svg" />
    </bx:export>
    <linearGradient
       inkscape:collect="always"
       xlink:href="#linearGradient1"
       id="linearGradient2"
       x1="191.38121"
       y1="291.92215"
       x2="160.80969"
       y2="-57.51202"
       gradientUnits="userSpaceOnUse"
       gradientTransform="matrix(0.93463576,0,0,0.88821459,10.884454,16.6485)" />
    <linearGradient
       inkscape:collect="always"
       xlink:href="#linearGradient3"
       id="linearGradient4"
       x1="25.194"
       y1="122.687"
       x2="78"
       y2="122.687"
       gradientUnits="userSpaceOnUse" />
    <linearGradient
       inkscape:collect="always"
       xlink:href="#linearGradient5"
       id="linearGradient6"
       x1="8.2216415"
       y1="120.33446"
       x2="349.81085"
       y2="120.33446"
       gradientUnits="userSpaceOnUse"
       gradientTransform="matrix(0.95913482,0,0,1,3.7688411,0.41725808)" />
    <linearGradient
       inkscape:collect="always"
       xlink:href="#linearGradient7"
       id="linearGradient8"
       x1="179.02258"
       y1="130.39303"
       x2="199.43014"
       y2="130.39303"
       gradientUnits="userSpaceOnUse" />
    <linearGradient
       inkscape:collect="always"
       xlink:href="#linearGradient9"
       id="linearGradient10"
       x1="24"
       y1="39.37032"
       x2="324"
       y2="39.37032"
       gradientUnits="userSpaceOnUse" />
  </defs>
  <path
     d="m 178,2.807 c 2.671,1.085 2.671,1.085 5.395,2.484 1.025,0.522 2.05,1.042 3.106,1.578 0.539,0.279 1.077,0.557 1.633,0.845 2.299,1.189 4.613,2.361 6.926,3.535 1.201,0.609 2.4,1.219 3.598,1.83 5.957,3.035 11.987,5.979 18.03,8.913 10.914,5.316 21.764,10.704 32.598,16.114 4.296,2.143 8.598,4.278 12.902,6.413 0.813,0.404 1.627,0.807 2.466,1.223 1.631,0.809 3.263,1.619 4.894,2.428 4.979,2.471 9.957,4.941 14.935,7.413 4.265,2.117 8.531,4.233 12.798,6.346 4.91,2.433 9.817,4.869 14.719,7.311 0.672,0.334 1.344,0.669 2.037,1.014 1.74,0.868 3.477,1.741 5.213,2.613 0.933,0.468 1.867,0.937 2.828,1.42 0.634,0.351 1.269,0.7 1.922,1.062 0,0.252 0,0.504 0,0.764 -13.236,1.651 -20.473,-1.432 -31.078,-7.207 -0.832,-0.463 -1.664,-0.925 -2.522,-1.402 -3.446,-1.893 -7.007,-3.635 -10.587,-5.375 -1.392,-0.686 -2.782,-1.374 -4.172,-2.061 -4.461,-2.197 -8.936,-4.379 -13.411,-6.56 C 248.087,46.612 234.024,39.624 220,32.587 c -0.76,-0.381 -1.519,-0.762 -2.302,-1.155 -9.24,-4.636 -18.478,-9.275 -27.714,-13.917 -0.717,-0.361 -1.435,-0.721 -2.174,-1.093 -1.017,-0.51 -1.017,-0.51 -2.053,-1.032 -0.957,-0.479 -0.957,-0.479 -1.934,-0.967 -1.197,-0.608 -2.386,-1.225 -3.564,-1.854 -3.066,-1.702 -3.066,-1.702 -6.728,-2.12 -3.257,0.975 -6.109,2.269 -9.031,3.716 -0.667,0.325 -1.333,0.648 -2.02,0.982 -9.903,4.839 -19.71,9.793 -29.535,14.723 -5.323,2.671 -10.656,5.329 -16.007,7.967 -0.65,0.32 -1.299,0.64 -1.968,0.97 -1.303,0.642 -2.606,1.284 -3.909,1.927 -3.963,1.956 -7.918,3.92 -11.873,5.885 -0.836,0.414 -1.671,0.828 -2.531,1.256 -2.553,1.267 -5.105,2.534 -7.657,3.802 -3.396,1.687 -6.792,3.373 -10.187,5.059 -0.827,0.41 -1.654,0.822 -2.506,1.244 -3.97,1.971 -7.942,3.939 -11.92,5.9 -0.733,0.361 -1.466,0.723 -2.22,1.096 -1.429,0.703 -2.86,1.402 -4.294,2.099 -3.116,1.518 -6.14,3.049 -9.033,4.808 -8.26,4.838 -14.846,4.926 -24.84,4.23 2.822,-2.294 5.674,-4.001 9.156,-5.677 1.013,-0.491 2.025,-0.981 3.069,-1.486 1.08,-0.519 2.161,-1.037 3.275,-1.571 1.7,-0.822 3.398,-1.645 5.096,-2.467 1.146,-0.556 2.293,-1.111 3.44,-1.665 5.181,-2.506 10.327,-5.05 15.464,-7.608 1.631,-0.812 3.263,-1.623 4.895,-2.434 0.775,-0.386 1.551,-0.772 2.35,-1.17 10.427,-5.185 20.893,-10.323 31.38,-15.439 11.089,-5.411 22.121,-10.887 33.135,-16.386 5.254,-2.622 10.512,-5.241 15.785,-7.841 3.732,-1.842 7.442,-3.698 11.1,-5.625 0.635,-0.328 1.27,-0.657 1.925,-0.996 1.67,-0.866 3.328,-1.745 4.985,-2.624 3.649,-1.339 5.065,-1.061 8.945,-0.317 z"
     style="fill:#f3a00a;fill-opacity:0.79828328;stroke:url(#linearGradient10)"
     id="object-1" />
  <path
     d="m 84,112 c 5,0 5,0 6.801758,1.32593 0.817427,0.91954 0.817427,0.91954 1.651367,1.85766 0.614883,0.67612 1.229766,1.35223 1.863281,2.04883 0.638086,0.72768 1.276172,1.45535 1.933594,2.20508 1.337384,1.47891 2.67592,2.95678 4.01563,4.43359 0.64259,0.71527 1.28519,1.43054 1.94726,2.16748 2.18704,2.40037 4.46532,4.69168 6.78711,6.96143 3.8831,3.82426 7.45494,7.8641 11,12 0.33,0.33 0.66,0.66 1,1 0.33,-11.22 0.66,-22.44 1,-34 0.99,0 1.98,0 3,0 0,12.87 0,25.74 0,39 -5.62245,-1.12449 -5.62245,-1.12449 -8.60156,-4.42969 -0.64993,-0.70794 -1.29986,-1.41587 -1.96948,-2.14526 -0.67781,-0.75902 -1.35561,-1.51803 -2.05396,-2.30005 -1.42434,-1.55731 -2.85013,-3.1133 -4.27734,-4.66797 -0.69594,-0.76232 -1.39187,-1.52464 -2.10889,-2.31006 -3.4334,-3.70651 -7.039765,-7.2266 -10.656739,-10.75244 C 92.739927,121.73296 90.378436,118.85412 88,116 c -0.33,11.55 -0.66,23.1 -1,35 -0.99,0 -1.98,0 -3,0 0,-12.87 0,-25.74 0,-39 z"
     style="fill:#e89538"
     id="object-2" />
  <path
     d="m 252.02344,113.58594 c 3.59245,2.57009 6.51282,5.7541 8.97656,9.41406 0,0.66 0,1.32 0,2 -1.6875,-0.125 -1.6875,-0.125 -4,-1 -1.23364,-1.49335 -2.46538,-2.98853 -3.67187,-4.5039 -4.07743,-4.59311 -9.70575,-5.17544 -15.51172,-5.5625 C 231.33988,114.0863 225.5474,116.3148 221,121 c -3.00651,6.21417 -3.0042,12.9316 -0.875,19.4375 2.89885,3.96176 6.25547,6.02266 10.875,7.5625 13.19702,1.01308 13.19702,1.01308 25,-4 2.63121,-2.76969 4.45145,-5.51574 6,-9 0.99,0 1.98,0 3,0 -0.32447,5.35372 -3.16799,8.54568 -7,12 -7.89398,5.97666 -16.56041,5.90232 -26,5 -6.58611,-1.29937 -11.6481,-4.84733 -15.64062,-10.19922 -1.73122,-3.56691 -1.7929,-6.28433 -1.79688,-10.23828 -0.0193,-1.27746 -0.0387,-2.55492 -0.0586,-3.87109 0.75407,-5.61096 3.36156,-8.6062 7.3711,-12.44141 8.40415,-6.05099 20.97814,-6.43811 30.14843,-1.66406 z"
     style="fill:#e89538"
     id="object-3" />
  <path
     d="m 133,112 c 0.99,0 1.98,0 3,0 0,5.61 0,11.22 0,17 1.27875,-0.80824 2.5575,-1.61648 3.875,-2.44922 1.70833,-1.07944 3.41666,-2.15886 5.125,-3.23828 0.83918,-0.53045 1.67836,-1.0609 2.54297,-1.60742 1.67465,-1.05802 3.35043,-2.11427 5.02734,-3.1687 1.58447,-1.00192 3.16295,-2.01339 4.73438,-3.03565 0.70383,-0.45399 1.40765,-0.90798 2.13281,-1.37573 0.61746,-0.40348 1.23492,-0.80695 1.87109,-1.22266 2.28973,-1.22154 4.15137,-1.29922 6.69141,-0.90234 -2.1937,2.3711 -4.4081,3.97161 -7.19531,5.59375 -0.79793,0.47309 -1.59586,0.94617 -2.41797,1.43359 -1.6803,0.98519 -3.36261,1.96694 -5.04688,2.94532 -0.79535,0.47308 -1.5907,0.94617 -2.41015,1.43359 -0.72977,0.42604 -1.45954,0.85207 -2.21143,1.29102 -2.0246,1.28021 -2.0246,1.28021 -2.71826,4.30273 0.84933,0.36037 0.84933,0.36037 1.71582,0.72803 2.75459,1.53392 4.61668,3.37923 6.83105,5.62353 0.84434,0.85078 1.68868,1.70156 2.5586,2.57813 1.30904,1.33418 1.30904,1.33418 2.64453,2.69531 0.88816,0.89719 1.77633,1.79437 2.69141,2.71875 2.19076,2.21432 4.37672,4.43317 6.55859,6.65625 -1.69727,0.7832 -1.69727,0.7832 -4,1 -2.31836,-1.83008 -2.31836,-1.83008 -4.84375,-4.53125 -0.67646,-0.70486 -0.67646,-0.70486 -1.36658,-1.42395 -1.93118,-2.01306 -3.83163,-4.05427 -5.73547,-6.09314 -1.39332,-1.48352 -2.80123,-2.95202 -4.21045,-4.42041 -0.83338,-0.89139 -1.66676,-1.78277 -2.52539,-2.70117 -2.09677,-2.07956 -2.09677,-2.07956 -4.37109,-1.67578 -0.6426,0.27908 -1.2852,0.55816 -1.94727,0.8457 -1.32,0.33 -2.64,0.66 -4,1 0,6.27 0,12.54 0,19 -0.99,0 -1.98,0 -3,0 0,-12.87 0,-25.74 0,-39 z"
     style="fill:#e89538"
     id="object-4" />
  <path
     d="m 25.194,94.374 c 16.967,0 33.935,0 51.416,0 0,0.958 0,1.916 0,2.903 -16.05,0 -32.1,0 -48.637,0 0,7.667 0,15.333 0,23.232 15.133,0 30.266,0 45.858,0 0,0.958 0,1.916 0,2.904 -15.133,0 -30.266,0 -45.858,0 0,8.145 0,16.291 0,24.683 16.509,0 33.018,0 50.027,0 0,0.958 0,1.917 0,2.904 -17.426,0 -34.852,0 -52.806,0 0,-18.687 0,-37.373 0,-56.626 z"
     style="fill:#e89538;stroke:url(#linearGradient4);stroke-width:1.5;stroke-linecap:round;stroke-miterlimit:4.4;stroke-dasharray:none"
     id="object-5" />
  <path
     d="m 250,149 c 0,0.66 0,1.32 0,2 -1.65,0.33 -3.3,0.66 -5,1 0,-0.66 0,-1.32 0,-2 -3.3,0 -6.6,0 -10,0 0,-0.33 0,-0.66 0,-1 2.12437,-0.19448 4.24953,-0.38038 6.375,-0.5625 1.18336,-0.10441 2.36672,-0.20883 3.58594,-0.31641 C 248,148 248,148 250,149 Z"
     style="fill:#e89538"
     id="object-6" />
  <path
     d="m 272.778,93.192 c 16.967,0 33.935,0 51.416,0 0,0.958 0,1.916 0,2.903 -16.05,0 -32.1,0 -48.637,0 0,7.667 0,15.333 0,23.232 15.133,0 30.266,0 45.858,0 0,0.958 0,1.916 0,2.904 -15.133,0 -30.266,0 -45.858,0 0,8.145 0,16.291 0,24.683 16.509,0 33.018,0 50.027,0 0,0.958 0,1.917 0,2.904 -17.426,0 -34.852,0 -52.806,0 0,-18.687 0,-37.373 0,-56.626 z"
     style="fill:#e89538"
     id="object-7" />
  <rect
     x="13.87955"
     y="80.689331"
     width="323.18002"
     height="80.124771"
     style="fill:url(#linearGradient2);stroke:url(#linearGradient6);stroke-width:0.8;stroke-dasharray:none;stroke-linejoin:round"
     id="rect1" />
  <rect
     style="opacity:0.643617;fill:url(#linearGradient8);stroke:#d6a400;stroke-width:2.7;stroke-linecap:round;stroke-miterlimit:4.4;stroke-dasharray:none;stroke-dashoffset:0;stroke-opacity:0.50403225"
     id="rect2"
     width="17.107565"
     height="4.5898347"
     x="180.67258"
     y="128.09811" />
</svg>
